<svg xmlns="http://www.w3.org/2000/svg" viewBox="0 0 1600 900" role="img" aria-labelledby="title desc">
  <title id="title">Sistema de som automotivo premium</title><desc id="desc">Ilustração abstrata de alto-falantes, equalizador e carro em preto e amarelo.</desc>
  <defs><linearGradient id="bg" x1="0" y1="0" x2="1" y2="1"><stop stop-color="#090909"/><stop offset=".55" stop-color="#181818"/><stop offset="1" stop-color="#050505"/></linearGradient><radialGradient id="cone"><stop stop-color="#fef08a"/><stop offset=".24" stop-color="#facc15"/><stop offset=".56" stop-color="#9a7100"/><stop offset=".58" stop-color="#1a1a1a"/><stop offset="1" stop-color="#060606"/></radialGradient><filter id="glow"><feGaussianBlur stdDeviation="10"/></filter></defs>
  <rect width="1600" height="900" fill="url(#bg)"/><g opacity=".33" stroke="#facc15"><path d="M0 705C260 600 350 810 620 685S1000 520 1600 690" fill="none" stroke-width="3"/><path d="M0 728C260 623 350 833 620 708S1000 543 1600 713" fill="none" stroke-width="1"/></g>
  <g opacity=".9"><circle cx="1160" cy="400" r="290" fill="#facc15" opacity=".09" filter="url(#glow)"/><circle cx="1160" cy="400" r="248" fill="#050505" stroke="#303030" stroke-width="18"/><circle cx="1160" cy="400" r="205" fill="url(#cone)"/><circle cx="1160" cy="400" r="67" fill="#111"/><circle cx="1160" cy="400" r="37" fill="#282828"/></g>
  <g opacity=".75"><circle cx="1380" cy="676" r="126" fill="#050505" stroke="#303030" stroke-width="10"/><circle cx="1380" cy="676" r="100" fill="url(#cone)"/><circle cx="1380" cy="676" r="29" fill="#1d1d1d"/></g>
  <g fill="#facc15" opacity=".8"><rect x="765" y="114" width="14" height="164" rx="7"/><rect x="796" y="165" width="14" height="113" rx="7"/><rect x="827" y="88" width="14" height="190" rx="7"/><rect x="858" y="138" width="14" height="140" rx="7"/><rect x="889" y="54" width="14" height="224" rx="7"/></g>
  <g transform="translate(90 525)"><path d="M25 126h88l58-80h500l72 80h98l34 44H0z" fill="#0c0c0c" stroke="#facc15" stroke-width="4"/><path d="M220 48l78-89h236l116 89" fill="#202020" stroke="#555" stroke-width="3"/><path d="M276 45l54-70h172l81 70" fill="#0d0d0d"/><circle cx="190" cy="176" r="58" fill="#030303" stroke="#555" stroke-width="10"/><circle cx="700" cy="176" r="58" fill="#030303" stroke="#555" stroke-width="10"/><circle cx="190" cy="176" r="24" fill="#facc15"/><circle cx="700" cy="176" r="24" fill="#facc15"/></g>
  <text x="102" y="158" fill="#facc15" font-family="Arial, sans-serif" font-size="25" font-weight="700" letter-spacing="8">AUTOMOTIVE AUDIO</text>
</svg>
